<svg width="33" height="32" viewBox="0 0 33 32" fill="none" xmlns="http://www.w3.org/2000/svg">
<circle cx="16.3965" cy="16" r="16" fill="white"/>
<g clip-path="url(#clip0_948_8)">
<path d="M16.3965 9.16309C18.801 9.16309 19.0833 9.17381 20.0337 9.21668C20.9126 9.25598 21.3878 9.40247 21.7057 9.52752C22.1273 9.69187 22.4275 9.8848 22.7419 10.1992C23.0563 10.5136 23.2528 10.8137 23.4136 11.2353C23.535 11.5533 23.6851 12.0285 23.7244 12.9074C23.7673 13.8578 23.778 14.1401 23.778 16.5446C23.778 18.9491 23.7673 19.2314 23.7244 20.1817C23.6851 21.0607 23.5386 21.5359 23.4136 21.8538C23.2492 22.2754 23.0563 22.5756 22.7419 22.89C22.4275 23.2044 22.1273 23.4009 21.7057 23.5617C21.3878 23.6831 20.9126 23.8332 20.0337 23.8725C19.0833 23.9154 18.801 23.9261 16.3965 23.9261C13.992 23.9261 13.7097 23.9154 12.7593 23.8725C11.8804 23.8332 11.4052 23.6867 11.0872 23.5617C10.6656 23.3973 10.3655 23.2044 10.0511 22.89C9.7367 22.5756 9.54019 22.2754 9.37942 21.8538C9.25794 21.5359 9.10788 21.0607 9.06858 20.1817C9.0257 19.2314 9.01498 18.9491 9.01498 16.5446C9.01498 14.1401 9.0257 13.8578 9.06858 12.9074C9.10788 12.0285 9.25437 11.5533 9.37942 11.2353C9.54377 10.8137 9.7367 10.5136 10.0511 10.1992C10.3655 9.8848 10.6656 9.6883 11.0872 9.52752C11.4052 9.40604 11.8804 9.25598 12.7593 9.21668C13.7097 9.17023 13.9955 9.16309 16.3965 9.16309ZM16.3965 7.54102C13.9527 7.54102 13.6454 7.55173 12.6843 7.59461C11.7268 7.63748 11.0729 7.79111 10.5013 8.01263C9.9082 8.24129 9.408 8.55213 8.9078 9.05233C8.4076 9.55253 8.10034 10.0563 7.8681 10.6458C7.64658 11.2175 7.49295 11.8713 7.45008 12.8324C7.4072 13.7899 7.39648 14.0972 7.39648 16.541C7.39648 18.9848 7.4072 19.2921 7.45008 20.2532C7.49295 21.2107 7.64658 21.8646 7.8681 22.4398C8.09676 23.0329 8.4076 23.5331 8.9078 24.0333C9.408 24.5335 9.91177 24.8407 10.5013 25.073C11.0729 25.2945 11.7268 25.4481 12.6879 25.491C13.649 25.5339 13.9527 25.5446 16.4001 25.5446C18.8475 25.5446 19.1512 25.5339 20.1123 25.491C21.0698 25.4481 21.7236 25.2945 22.2988 25.073C22.8919 24.8443 23.3921 24.5335 23.8923 24.0333C24.3925 23.5331 24.6998 23.0293 24.932 22.4398C25.1535 21.8681 25.3072 21.2143 25.35 20.2532C25.3929 19.2921 25.4036 18.9884 25.4036 16.541C25.4036 14.0936 25.3929 13.7899 25.35 12.8288C25.3072 11.8713 25.1535 11.2175 24.932 10.6422C24.7034 10.0492 24.3925 9.54896 23.8923 9.04876C23.3921 8.54856 22.8884 8.24129 22.2988 8.00906C21.7272 7.78754 21.0733 7.63391 20.1123 7.59104C19.1476 7.55173 18.8403 7.54102 16.3965 7.54102Z" fill="#1B1B1B"/>
<path d="M16.3965 9.16309C18.801 9.16309 19.0833 9.17381 20.0337 9.21668C20.9126 9.25598 21.3878 9.40247 21.7057 9.52752C22.1273 9.69187 22.4275 9.8848 22.7419 10.1992C23.0563 10.5136 23.2528 10.8137 23.4136 11.2353C23.535 11.5533 23.6851 12.0285 23.7244 12.9074C23.7673 13.8578 23.778 14.1401 23.778 16.5446C23.778 18.9491 23.7673 19.2314 23.7244 20.1817C23.6851 21.0607 23.5386 21.5359 23.4136 21.8538C23.2492 22.2754 23.0563 22.5756 22.7419 22.89C22.4275 23.2044 22.1273 23.4009 21.7057 23.5617C21.3878 23.6831 20.9126 23.8332 20.0337 23.8725C19.0833 23.9154 18.801 23.9261 16.3965 23.9261C13.992 23.9261 13.7097 23.9154 12.7593 23.8725C11.8804 23.8332 11.4052 23.6867 11.0872 23.5617C10.6656 23.3973 10.3655 23.2044 10.0511 22.89C9.7367 22.5756 9.54019 22.2754 9.37942 21.8538C9.25794 21.5359 9.10788 21.0607 9.06858 20.1817C9.0257 19.2314 9.01498 18.9491 9.01498 16.5446C9.01498 14.1401 9.0257 13.8578 9.06858 12.9074C9.10788 12.0285 9.25437 11.5533 9.37942 11.2353C9.54377 10.8137 9.7367 10.5136 10.0511 10.1992C10.3655 9.8848 10.6656 9.6883 11.0872 9.52752C11.4052 9.40604 11.8804 9.25598 12.7593 9.21668C13.7097 9.17023 13.9955 9.16309 16.3965 9.16309Z" fill="#1B1B1B"/>
<path d="M16.3967 11.9209C13.8457 11.9209 11.7734 13.9896 11.7734 16.5442C11.7734 19.0987 13.8421 21.1674 16.3967 21.1674C18.9513 21.1674 21.02 19.0987 21.02 16.5442C21.02 13.9896 18.9513 11.9209 16.3967 11.9209ZM16.3967 19.5418C14.7389 19.5418 13.3955 18.1984 13.3955 16.5406C13.3955 14.8828 14.7389 13.5394 16.3967 13.5394C18.0545 13.5394 19.3979 14.8828 19.3979 16.5406C19.3979 18.1984 18.0545 19.5418 16.3967 19.5418Z" fill="white"/>
<path d="M21.202 12.8142C21.798 12.8142 22.281 12.3312 22.281 11.7352C22.281 11.1393 21.798 10.6562 21.202 10.6562C20.6061 10.6562 20.123 11.1393 20.123 11.7352C20.123 12.3312 20.6061 12.8142 21.202 12.8142Z" fill="white"/>
</g>
<defs>
<clipPath id="clip0_948_8">
<rect width="18" height="18" fill="white" transform="translate(7.39648 7.54102)"/>
</clipPath>
</defs>
</svg>
