<svg width="32" height="32" viewBox="0 0 32 32" fill="none" xmlns="http://www.w3.org/2000/svg">
<circle cx="16" cy="16" r="16" fill="white"/>
<path fill-rule="evenodd" clip-rule="evenodd" d="M7.23741 14.9627C12.0692 12.8576 15.2912 11.4697 16.9033 10.7992C21.5063 8.88469 22.4627 8.55211 23.0861 8.54113C23.2232 8.53872 23.5298 8.5727 23.7284 8.73383C23.8961 8.86989 23.9422 9.05369 23.9643 9.18269C23.9864 9.31169 24.0139 9.60556 23.992 9.83518C23.7426 12.456 22.6633 18.8161 22.1142 21.7514C21.8818 22.9935 21.4244 23.41 20.9815 23.4507C20.0189 23.5393 19.288 22.8146 18.3558 22.2035C16.897 21.2473 16.0729 20.652 14.6569 19.7189C13.0205 18.6405 14.0813 18.0478 15.0139 17.0792C15.258 16.8257 19.4988 12.9683 19.5809 12.6184C19.5912 12.5746 19.6007 12.4115 19.5038 12.3253C19.4069 12.2392 19.2639 12.2687 19.1606 12.2921C19.0143 12.3253 16.6839 13.8656 12.1694 16.913C11.5079 17.3673 10.9087 17.5886 10.3719 17.577C9.78013 17.5642 8.64175 17.2424 7.79548 16.9673C6.75749 16.6299 5.93252 16.4515 6.00436 15.8785C6.04178 15.58 6.45279 15.2747 7.23741 14.9627Z" fill="#1B1B1B"/>
</svg>
