<svg width="33" height="32" viewBox="0 0 33 32" fill="none" xmlns="http://www.w3.org/2000/svg">
<circle cx="16.1895" cy="16" r="16" fill="white"/>
<path d="M26.4868 10.7126C26.5276 10.5777 26.5471 10.4535 26.5418 10.3435C26.5276 10.0223 26.3076 9.78809 25.7876 9.78809H23.4648C22.8793 9.78809 22.6078 10.143 22.4498 10.4997C22.4498 10.4997 21.0019 13.479 19.3321 15.4451C18.7909 16.013 18.5158 15.9988 18.223 15.9988C18.0669 15.9988 17.6694 15.8089 17.6694 15.2872V10.6877C17.6694 10.072 17.5168 9.78809 17.0199 9.78809H12.8961C12.5341 9.78809 12.346 10.072 12.346 10.3577C12.346 10.9486 13.1427 11.0906 13.2332 12.7497V15.9633C13.2332 16.744 13.0983 16.886 12.8056 16.886C12.0159 16.886 10.4615 14.2243 9.41985 10.7357C9.19449 10.0489 8.96913 9.78809 8.38355 9.78809H6.03769C5.36161 9.78809 5.24805 10.1199 5.24805 10.4748C5.24805 11.1154 5.78039 14.5721 8.68699 18.5487C10.7933 21.434 13.5704 23.0967 16.028 23.0967C17.5168 23.0967 17.6694 22.7169 17.6694 22.126V19.4892C17.6694 18.7776 17.8327 18.6605 18.3064 18.6605C18.6454 18.6605 19.3339 18.8823 20.6647 20.435C22.1996 22.2254 22.4782 23.0967 23.3584 23.0967H25.6812C26.2206 23.0967 26.5311 22.8713 26.5436 22.4312C26.5453 22.3195 26.5311 22.1935 26.4939 22.0551C26.3218 21.544 25.5321 20.2948 24.5473 19.1041C24.0007 18.444 23.4631 17.791 23.2164 17.4379C23.0478 17.2054 22.9857 17.0422 22.9928 16.886C22.9999 16.7228 23.0851 16.5648 23.2146 16.3466C23.1916 16.3466 26.194 12.1322 26.4868 10.7126Z" fill="#1B1B1B"/>
</svg>
