<svg width="33" height="32" viewBox="0 0 33 32" fill="none" xmlns="http://www.w3.org/2000/svg">
<circle cx="16.793" cy="16" r="16" fill="white"/>
<g clip-path="url(#clip0_948_9)">
<path d="M7.79297 25L9.06517 20.3802C8.27864 19.0242 7.86603 17.4886 7.87033 15.9187C7.87033 10.9995 11.8933 7 16.8316 7C19.2299 7 21.4821 7.92823 23.1712 9.61359C24.8646 11.299 25.7973 13.5404 25.793 15.923C25.793 20.8422 21.77 24.8417 16.8273 24.8417H16.823C15.323 24.8417 13.8488 24.4653 12.538 23.7552L7.79297 25ZM12.7657 22.1426L13.0365 22.3051C14.1798 22.981 15.4907 23.336 16.8273 23.3403H16.8316C20.9362 23.3403 24.2801 20.0166 24.2801 15.9273C24.2801 13.9468 23.5064 12.086 22.101 10.683C20.6955 9.27994 18.8216 8.50998 16.8316 8.50998C12.7271 8.5057 9.38323 11.8294 9.38323 15.9187C9.38323 17.3175 9.77434 18.682 10.5222 19.8626L10.6984 20.145L9.94626 22.8783L12.7657 22.1426Z" fill="#1B1B1B"/>
<path d="M8.10645 24.688L9.33567 20.2265C8.57493 18.9218 8.17521 17.4375 8.17521 15.9232C8.17951 11.1751 12.0606 7.3125 16.8314 7.3125C19.148 7.3125 21.3185 8.21079 22.9517 9.83627C24.5849 11.4617 25.4832 13.6262 25.4832 15.9275C25.4832 20.6756 21.5978 24.5383 16.8314 24.5383H16.8271C15.3786 24.5383 13.956 24.1747 12.6924 23.4903L8.10645 24.688Z" fill="white"/>
<path d="M7.79297 25L9.06517 20.3802C8.27864 19.0242 7.86603 17.4886 7.87033 15.9187C7.87033 10.9995 11.8933 7 16.8316 7C19.2299 7 21.4821 7.92823 23.1712 9.61359C24.8646 11.299 25.7973 13.5404 25.793 15.923C25.793 20.8422 21.77 24.8417 16.8273 24.8417H16.823C15.323 24.8417 13.8488 24.4653 12.538 23.7552L7.79297 25ZM12.7657 22.1426L13.0365 22.3051C14.1798 22.981 15.4907 23.336 16.8273 23.3403H16.8316C20.9362 23.3403 24.2801 20.0166 24.2801 15.9273C24.2801 13.9468 23.5064 12.086 22.101 10.683C20.6955 9.27994 18.8216 8.50998 16.8316 8.50998C12.7271 8.5057 9.38323 11.8294 9.38323 15.9187C9.38323 17.3175 9.77434 18.682 10.5222 19.8626L10.6984 20.145L9.94626 22.8783L12.7657 22.1426Z" fill="#1B1B1B"/>
<path fill-rule="evenodd" clip-rule="evenodd" d="M14.5926 12.1891C14.425 11.8169 14.2488 11.8084 14.0897 11.8041C13.9608 11.7998 13.8104 11.7998 13.6599 11.7998C13.5095 11.7998 13.2688 11.8554 13.0625 12.0778C12.8562 12.3003 12.2803 12.8393 12.2803 13.9386C12.2803 15.0336 13.084 16.0945 13.1957 16.2442C13.3075 16.3939 14.7473 18.7166 17.021 19.6106C18.9121 20.3549 19.2989 20.2052 19.7072 20.1667C20.1155 20.1282 21.031 19.6278 21.2201 19.1059C21.4049 18.584 21.4049 18.1392 21.349 18.0451C21.2932 17.9509 21.1427 17.8953 20.9192 17.7841C20.6957 17.6729 19.5955 17.1339 19.3891 17.0569C19.1828 16.9842 19.0324 16.9457 18.8863 17.1682C18.7359 17.3906 18.3061 17.8911 18.1771 18.0408C18.0482 18.1905 17.9149 18.2076 17.6914 18.0964C17.4679 17.9852 16.7459 17.7499 15.8906 16.9885C15.2244 16.3982 14.7731 15.6667 14.6442 15.4443C14.5152 15.2219 14.6313 15.1021 14.743 14.9909C14.8419 14.8925 14.9665 14.7299 15.0783 14.6016C15.19 14.4733 15.2287 14.3792 15.3018 14.2295C15.3748 14.0797 15.3404 13.9514 15.2846 13.8402C15.2287 13.7333 14.7903 12.6297 14.5926 12.1891Z" fill="#1B1B1B"/>
</g>
<defs>
<clipPath id="clip0_948_9">
<rect width="18" height="18" fill="white" transform="translate(7.79297 7)"/>
</clipPath>
</defs>
</svg>
